<?xml version="1.0" encoding="utf-8" standalone="no"?>
<!DOCTYPE svg PUBLIC "-//W3C//DTD SVG 1.1//EN"
  "http://www.w3.org/Graphics/SVG/1.1/DTD/svg11.dtd">
<!-- Created with matplotlib (https://matplotlib.org/) -->
<svg height="504pt" version="1.1" viewBox="0 0 504 504" width="504pt" xmlns="http://www.w3.org/2000/svg" xmlns:xlink="http://www.w3.org/1999/xlink">
 <metadata>
  <rdf:RDF xmlns:cc="http://creativecommons.org/ns#" xmlns:dc="http://purl.org/dc/elements/1.1/" xmlns:rdf="http://www.w3.org/1999/02/22-rdf-syntax-ns#">
   <cc:Work>
    <dc:type rdf:resource="http://purl.org/dc/dcmitype/StillImage"/>
    <dc:date>2020-11-19T10:44:12.916313</dc:date>
    <dc:format>image/svg+xml</dc:format>
    <dc:creator>
     <cc:Agent>
      <dc:title>Matplotlib v3.3.2, https://matplotlib.org/</dc:title>
     </cc:Agent>
    </dc:creator>
   </cc:Work>
  </rdf:RDF>
 </metadata>
 <defs>
  <style type="text/css">*{stroke-linecap:butt;stroke-linejoin:round;}</style>
 </defs>
 <g id="figure_1">
  <g id="patch_1">
   <path d="M 0 504 
L 504 504 
L 504 0 
L 0 0 
z
" style="fill:none;"/>
  </g>
  <g id="axes_1">
   <g id="patch_2">
    <path d="M 63 441 
L 453.6 441 
L 453.6 60.48 
L 63 60.48 
z
" style="fill:#ffffff;"/>
   </g>
   <g id="PathCollection_1">
    <defs>
     <path d="M 0 3.535534 
C 0.937635 3.535534 1.836992 3.163008 2.5 2.5 
C 3.163008 1.836992 3.535534 0.937635 3.535534 0 
C 3.535534 -0.937635 3.163008 -1.836992 2.5 -2.5 
C 1.836992 -3.163008 0.937635 -3.535534 0 -3.535534 
C -0.937635 -3.535534 -1.836992 -3.163008 -2.5 -2.5 
C -3.163008 -1.836992 -3.535534 -0.937635 -3.535534 0 
C -3.535534 0.937635 -3.163008 1.836992 -2.5 2.5 
C -1.836992 3.163008 -0.937635 3.535534 0 3.535534 
z
" id="m7cf7136898" style="stroke:#99d594;"/>
    </defs>
    <g clip-path="url(#pcee9af0e52)">
     <use style="fill:#99d594;stroke:#99d594;" x="80.754545" xlink:href="#m7cf7136898" y="77.776364"/>
     <use style="fill:#99d594;stroke:#99d594;" x="83.595273" xlink:href="#m7cf7136898" y="78.89333"/>
     <use style="fill:#99d594;stroke:#99d594;" x="86.436" xlink:href="#m7cf7136898" y="121.539152"/>
     <use style="fill:#99d594;stroke:#99d594;" x="89.276727" xlink:href="#m7cf7136898" y="138.281459"/>
     <use style="fill:#99d594;stroke:#99d594;" x="92.117455" xlink:href="#m7cf7136898" y="151.950537"/>
     <use style="fill:#99d594;stroke:#99d594;" x="94.958182" xlink:href="#m7cf7136898" y="162.800085"/>
     <use style="fill:#99d594;stroke:#99d594;" x="97.798909" xlink:href="#m7cf7136898" y="165.698973"/>
     <use style="fill:#99d594;stroke:#99d594;" x="100.639636" xlink:href="#m7cf7136898" y="165.433897"/>
     <use style="fill:#99d594;stroke:#99d594;" x="103.480364" xlink:href="#m7cf7136898" y="172.917033"/>
     <use style="fill:#99d594;stroke:#99d594;" x="106.321091" xlink:href="#m7cf7136898" y="164.61027"/>
     <use style="fill:#99d594;stroke:#99d594;" x="109.161818" xlink:href="#m7cf7136898" y="187.299406"/>
     <use style="fill:#99d594;stroke:#99d594;" x="112.002545" xlink:href="#m7cf7136898" y="220.530086"/>
     <use style="fill:#99d594;stroke:#99d594;" x="114.843273" xlink:href="#m7cf7136898" y="220.589368"/>
     <use style="fill:#99d594;stroke:#99d594;" x="117.684" xlink:href="#m7cf7136898" y="242.012611"/>
     <use style="fill:#99d594;stroke:#99d594;" x="120.524727" xlink:href="#m7cf7136898" y="268.432875"/>
     <use style="fill:#99d594;stroke:#99d594;" x="123.365455" xlink:href="#m7cf7136898" y="287.70442"/>
     <use style="fill:#99d594;stroke:#99d594;" x="126.206182" xlink:href="#m7cf7136898" y="378.503241"/>
     <use style="fill:#99d594;stroke:#99d594;" x="129.046909" xlink:href="#m7cf7136898" y="379.438615"/>
     <use style="fill:#99d594;stroke:#99d594;" x="131.887636" xlink:href="#m7cf7136898" y="394.176957"/>
     <use style="fill:#99d594;stroke:#99d594;" x="134.728364" xlink:href="#m7cf7136898" y="395.109094"/>
     <use style="fill:#99d594;stroke:#99d594;" x="137.569091" xlink:href="#m7cf7136898" y="398.267454"/>
     <use style="fill:#99d594;stroke:#99d594;" x="140.409818" xlink:href="#m7cf7136898" y="394.777415"/>
     <use style="fill:#99d594;stroke:#99d594;" x="143.250545" xlink:href="#m7cf7136898" y="400.819456"/>
     <use style="fill:#99d594;stroke:#99d594;" x="146.091273" xlink:href="#m7cf7136898" y="402.390989"/>
     <use style="fill:#99d594;stroke:#99d594;" x="148.932" xlink:href="#m7cf7136898" y="401.509657"/>
     <use style="fill:#99d594;stroke:#99d594;" x="151.772727" xlink:href="#m7cf7136898" y="408.024858"/>
     <use style="fill:#99d594;stroke:#99d594;" x="154.613455" xlink:href="#m7cf7136898" y="411.127398"/>
     <use style="fill:#99d594;stroke:#99d594;" x="157.454182" xlink:href="#m7cf7136898" y="412.925252"/>
     <use style="fill:#99d594;stroke:#99d594;" x="160.294909" xlink:href="#m7cf7136898" y="413.043505"/>
     <use style="fill:#99d594;stroke:#99d594;" x="163.135636" xlink:href="#m7cf7136898" y="408.395942"/>
     <use style="fill:#99d594;stroke:#99d594;" x="165.976364" xlink:href="#m7cf7136898" y="410.496669"/>
     <use style="fill:#99d594;stroke:#99d594;" x="168.817091" xlink:href="#m7cf7136898" y="414.409619"/>
     <use style="fill:#99d594;stroke:#99d594;" x="171.657818" xlink:href="#m7cf7136898" y="418.656466"/>
     <use style="fill:#99d594;stroke:#99d594;" x="174.498545" xlink:href="#m7cf7136898" y="419.437866"/>
     <use style="fill:#99d594;stroke:#99d594;" x="177.339273" xlink:href="#m7cf7136898" y="416.52916"/>
     <use style="fill:#99d594;stroke:#99d594;" x="180.18" xlink:href="#m7cf7136898" y="414.69108"/>
     <use style="fill:#99d594;stroke:#99d594;" x="183.020727" xlink:href="#m7cf7136898" y="417.742002"/>
     <use style="fill:#99d594;stroke:#99d594;" x="185.861455" xlink:href="#m7cf7136898" y="418.376251"/>
     <use style="fill:#99d594;stroke:#99d594;" x="188.702182" xlink:href="#m7cf7136898" y="420.020645"/>
     <use style="fill:#99d594;stroke:#99d594;" x="191.542909" xlink:href="#m7cf7136898" y="421.215256"/>
     <use style="fill:#99d594;stroke:#99d594;" x="194.383636" xlink:href="#m7cf7136898" y="418.6342"/>
     <use style="fill:#99d594;stroke:#99d594;" x="197.224364" xlink:href="#m7cf7136898" y="422.967534"/>
     <use style="fill:#99d594;stroke:#99d594;" x="200.065091" xlink:href="#m7cf7136898" y="415.109955"/>
     <use style="fill:#99d594;stroke:#99d594;" x="202.905818" xlink:href="#m7cf7136898" y="413.857924"/>
     <use style="fill:#99d594;stroke:#99d594;" x="205.746545" xlink:href="#m7cf7136898" y="413.885709"/>
     <use style="fill:#99d594;stroke:#99d594;" x="208.587273" xlink:href="#m7cf7136898" y="417.249611"/>
     <use style="fill:#99d594;stroke:#99d594;" x="211.428" xlink:href="#m7cf7136898" y="415.401439"/>
     <use style="fill:#99d594;stroke:#99d594;" x="214.268727" xlink:href="#m7cf7136898" y="416.135773"/>
     <use style="fill:#99d594;stroke:#99d594;" x="217.109455" xlink:href="#m7cf7136898" y="418.451141"/>
     <use style="fill:#99d594;stroke:#99d594;" x="219.950182" xlink:href="#m7cf7136898" y="416.545847"/>
     <use style="fill:#99d594;stroke:#99d594;" x="222.790909" xlink:href="#m7cf7136898" y="418.439977"/>
     <use style="fill:#99d594;stroke:#99d594;" x="225.631636" xlink:href="#m7cf7136898" y="416.556022"/>
     <use style="fill:#99d594;stroke:#99d594;" x="228.472364" xlink:href="#m7cf7136898" y="418.278568"/>
     <use style="fill:#99d594;stroke:#99d594;" x="231.313091" xlink:href="#m7cf7136898" y="415.432232"/>
     <use style="fill:#99d594;stroke:#99d594;" x="234.153818" xlink:href="#m7cf7136898" y="414.390785"/>
     <use style="fill:#99d594;stroke:#99d594;" x="236.994545" xlink:href="#m7cf7136898" y="415.056633"/>
     <use style="fill:#99d594;stroke:#99d594;" x="239.835273" xlink:href="#m7cf7136898" y="414.670084"/>
     <use style="fill:#99d594;stroke:#99d594;" x="242.676" xlink:href="#m7cf7136898" y="405.431248"/>
     <use style="fill:#99d594;stroke:#99d594;" x="245.516727" xlink:href="#m7cf7136898" y="408.350386"/>
     <use style="fill:#99d594;stroke:#99d594;" x="248.357455" xlink:href="#m7cf7136898" y="407.602973"/>
     <use style="fill:#99d594;stroke:#99d594;" x="251.198182" xlink:href="#m7cf7136898" y="400.751574"/>
     <use style="fill:#99d594;stroke:#99d594;" x="254.038909" xlink:href="#m7cf7136898" y="404.475933"/>
     <use style="fill:#99d594;stroke:#99d594;" x="256.879636" xlink:href="#m7cf7136898" y="406.943745"/>
     <use style="fill:#99d594;stroke:#99d594;" x="259.720364" xlink:href="#m7cf7136898" y="399.314912"/>
     <use style="fill:#99d594;stroke:#99d594;" x="262.561091" xlink:href="#m7cf7136898" y="401.914026"/>
     <use style="fill:#99d594;stroke:#99d594;" x="265.401818" xlink:href="#m7cf7136898" y="406.971183"/>
     <use style="fill:#99d594;stroke:#99d594;" x="268.242545" xlink:href="#m7cf7136898" y="403.775693"/>
     <use style="fill:#99d594;stroke:#99d594;" x="271.083273" xlink:href="#m7cf7136898" y="407.63722"/>
     <use style="fill:#99d594;stroke:#99d594;" x="273.924" xlink:href="#m7cf7136898" y="404.563129"/>
     <use style="fill:#99d594;stroke:#99d594;" x="276.764727" xlink:href="#m7cf7136898" y="411.431871"/>
     <use style="fill:#99d594;stroke:#99d594;" x="279.605455" xlink:href="#m7cf7136898" y="404.371529"/>
     <use style="fill:#99d594;stroke:#99d594;" x="282.446182" xlink:href="#m7cf7136898" y="404.196055"/>
     <use style="fill:#99d594;stroke:#99d594;" x="285.286909" xlink:href="#m7cf7136898" y="407.174225"/>
     <use style="fill:#99d594;stroke:#99d594;" x="288.127636" xlink:href="#m7cf7136898" y="402.836829"/>
     <use style="fill:#99d594;stroke:#99d594;" x="290.968364" xlink:href="#m7cf7136898" y="406.322467"/>
     <use style="fill:#99d594;stroke:#99d594;" x="293.809091" xlink:href="#m7cf7136898" y="408.652797"/>
     <use style="fill:#99d594;stroke:#99d594;" x="296.649818" xlink:href="#m7cf7136898" y="404.396655"/>
     <use style="fill:#99d594;stroke:#99d594;" x="299.490545" xlink:href="#m7cf7136898" y="406.404751"/>
     <use style="fill:#99d594;stroke:#99d594;" x="302.331273" xlink:href="#m7cf7136898" y="407.309113"/>
     <use style="fill:#99d594;stroke:#99d594;" x="305.172" xlink:href="#m7cf7136898" y="402.461867"/>
     <use style="fill:#99d594;stroke:#99d594;" x="308.012727" xlink:href="#m7cf7136898" y="405.797762"/>
     <use style="fill:#99d594;stroke:#99d594;" x="310.853455" xlink:href="#m7cf7136898" y="399.9363"/>
     <use style="fill:#99d594;stroke:#99d594;" x="313.694182" xlink:href="#m7cf7136898" y="402.325949"/>
     <use style="fill:#99d594;stroke:#99d594;" x="316.534909" xlink:href="#m7cf7136898" y="402.37171"/>
     <use style="fill:#99d594;stroke:#99d594;" x="319.375636" xlink:href="#m7cf7136898" y="401.908452"/>
     <use style="fill:#99d594;stroke:#99d594;" x="322.216364" xlink:href="#m7cf7136898" y="400.6024"/>
     <use style="fill:#99d594;stroke:#99d594;" x="325.057091" xlink:href="#m7cf7136898" y="401.206468"/>
     <use style="fill:#99d594;stroke:#99d594;" x="327.897818" xlink:href="#m7cf7136898" y="399.129697"/>
     <use style="fill:#99d594;stroke:#99d594;" x="330.738545" xlink:href="#m7cf7136898" y="399.677997"/>
     <use style="fill:#99d594;stroke:#99d594;" x="333.579273" xlink:href="#m7cf7136898" y="400.509535"/>
     <use style="fill:#99d594;stroke:#99d594;" x="336.42" xlink:href="#m7cf7136898" y="401.265177"/>
     <use style="fill:#99d594;stroke:#99d594;" x="339.260727" xlink:href="#m7cf7136898" y="398.32255"/>
     <use style="fill:#99d594;stroke:#99d594;" x="342.101455" xlink:href="#m7cf7136898" y="396.410033"/>
     <use style="fill:#99d594;stroke:#99d594;" x="344.942182" xlink:href="#m7cf7136898" y="396.413246"/>
     <use style="fill:#99d594;stroke:#99d594;" x="347.782909" xlink:href="#m7cf7136898" y="397.192896"/>
     <use style="fill:#99d594;stroke:#99d594;" x="350.623636" xlink:href="#m7cf7136898" y="399.094017"/>
     <use style="fill:#99d594;stroke:#99d594;" x="353.464364" xlink:href="#m7cf7136898" y="408.535034"/>
     <use style="fill:#99d594;stroke:#99d594;" x="356.305091" xlink:href="#m7cf7136898" y="404.062579"/>
     <use style="fill:#99d594;stroke:#99d594;" x="359.145818" xlink:href="#m7cf7136898" y="406.804999"/>
     <use style="fill:#99d594;stroke:#99d594;" x="361.986545" xlink:href="#m7cf7136898" y="408.517835"/>
     <use style="fill:#99d594;stroke:#99d594;" x="364.827273" xlink:href="#m7cf7136898" y="414.991492"/>
     <use style="fill:#99d594;stroke:#99d594;" x="367.668" xlink:href="#m7cf7136898" y="411.288316"/>
     <use style="fill:#99d594;stroke:#99d594;" x="370.508727" xlink:href="#m7cf7136898" y="404.484973"/>
     <use style="fill:#99d594;stroke:#99d594;" x="373.349455" xlink:href="#m7cf7136898" y="406.121721"/>
     <use style="fill:#99d594;stroke:#99d594;" x="376.190182" xlink:href="#m7cf7136898" y="406.339064"/>
     <use style="fill:#99d594;stroke:#99d594;" x="379.030909" xlink:href="#m7cf7136898" y="405.183901"/>
     <use style="fill:#99d594;stroke:#99d594;" x="381.871636" xlink:href="#m7cf7136898" y="404.514718"/>
     <use style="fill:#99d594;stroke:#99d594;" x="384.712364" xlink:href="#m7cf7136898" y="409.022232"/>
     <use style="fill:#99d594;stroke:#99d594;" x="387.553091" xlink:href="#m7cf7136898" y="405.729717"/>
     <use style="fill:#99d594;stroke:#99d594;" x="390.393818" xlink:href="#m7cf7136898" y="408.578856"/>
     <use style="fill:#99d594;stroke:#99d594;" x="393.234545" xlink:href="#m7cf7136898" y="408.274232"/>
     <use style="fill:#99d594;stroke:#99d594;" x="396.075273" xlink:href="#m7cf7136898" y="410.980616"/>
     <use style="fill:#99d594;stroke:#99d594;" x="398.916" xlink:href="#m7cf7136898" y="410.534171"/>
     <use style="fill:#99d594;stroke:#99d594;" x="401.756727" xlink:href="#m7cf7136898" y="409.47535"/>
     <use style="fill:#99d594;stroke:#99d594;" x="404.597455" xlink:href="#m7cf7136898" y="407.958487"/>
     <use style="fill:#99d594;stroke:#99d594;" x="407.438182" xlink:href="#m7cf7136898" y="413.852221"/>
     <use style="fill:#99d594;stroke:#99d594;" x="410.278909" xlink:href="#m7cf7136898" y="413.173185"/>
     <use style="fill:#99d594;stroke:#99d594;" x="413.119636" xlink:href="#m7cf7136898" y="409.801944"/>
     <use style="fill:#99d594;stroke:#99d594;" x="415.960364" xlink:href="#m7cf7136898" y="409.582461"/>
     <use style="fill:#99d594;stroke:#99d594;" x="418.801091" xlink:href="#m7cf7136898" y="412.025686"/>
     <use style="fill:#99d594;stroke:#99d594;" x="421.641818" xlink:href="#m7cf7136898" y="408.976238"/>
     <use style="fill:#99d594;stroke:#99d594;" x="424.482545" xlink:href="#m7cf7136898" y="408.863799"/>
     <use style="fill:#99d594;stroke:#99d594;" x="427.323273" xlink:href="#m7cf7136898" y="407.509067"/>
     <use style="fill:#99d594;stroke:#99d594;" x="430.164" xlink:href="#m7cf7136898" y="412.022327"/>
     <use style="fill:#99d594;stroke:#99d594;" x="433.004727" xlink:href="#m7cf7136898" y="410.137267"/>
     <use style="fill:#99d594;stroke:#99d594;" x="435.845455" xlink:href="#m7cf7136898" y="412.289724"/>
    </g>
   </g>
   <g id="PathCollection_2">
    <defs>
     <path d="M -0 8.660254 
L 8.660254 0 
L 0 -8.660254 
L -8.660254 -0 
z
" id="m34d41f1fad" style="stroke:#ff0000;"/>
    </defs>
    <g clip-path="url(#pcee9af0e52)">
     <use style="fill:#ff0000;stroke:#ff0000;" x="168.817091" xlink:href="#m34d41f1fad" y="418.656466"/>
    </g>
   </g>
   <g id="PathCollection_3">
    <defs>
     <path d="M 0 1.581139 
C 0.419323 1.581139 0.821528 1.41454 1.118034 1.118034 
C 1.41454 0.821528 1.581139 0.419323 1.581139 0 
C 1.581139 -0.419323 1.41454 -0.821528 1.118034 -1.118034 
C 0.821528 -1.41454 0.419323 -1.581139 0 -1.581139 
C -0.419323 -1.581139 -0.821528 -1.41454 -1.118034 -1.118034 
C -1.41454 -0.821528 -1.581139 -0.419323 -1.581139 0 
C -1.581139 0.419323 -1.41454 0.821528 -1.118034 1.118034 
C -0.821528 1.41454 -0.419323 1.581139 0 1.581139 
z
" id="m1dc6be7b77" style="stroke:#000000;"/>
    </defs>
    <g clip-path="url(#pcee9af0e52)">
     <use style="stroke:#000000;" x="80.754545" xlink:href="#m1dc6be7b77" y="77.776364"/>
     <use style="stroke:#000000;" x="83.595273" xlink:href="#m1dc6be7b77" y="78.89333"/>
     <use style="stroke:#000000;" x="86.436" xlink:href="#m1dc6be7b77" y="121.539152"/>
     <use style="stroke:#000000;" x="89.276727" xlink:href="#m1dc6be7b77" y="138.281459"/>
     <use style="stroke:#000000;" x="92.117455" xlink:href="#m1dc6be7b77" y="151.950537"/>
     <use style="stroke:#000000;" x="94.958182" xlink:href="#m1dc6be7b77" y="162.800085"/>
     <use style="stroke:#000000;" x="97.798909" xlink:href="#m1dc6be7b77" y="165.698973"/>
     <use style="stroke:#000000;" x="100.639636" xlink:href="#m1dc6be7b77" y="165.433897"/>
     <use style="stroke:#000000;" x="103.480364" xlink:href="#m1dc6be7b77" y="172.917033"/>
     <use style="stroke:#000000;" x="106.321091" xlink:href="#m1dc6be7b77" y="164.61027"/>
     <use style="stroke:#000000;" x="109.161818" xlink:href="#m1dc6be7b77" y="187.299406"/>
     <use style="stroke:#000000;" x="112.002545" xlink:href="#m1dc6be7b77" y="220.530086"/>
     <use style="stroke:#000000;" x="114.843273" xlink:href="#m1dc6be7b77" y="220.589368"/>
     <use style="stroke:#000000;" x="117.684" xlink:href="#m1dc6be7b77" y="242.012611"/>
     <use style="stroke:#000000;" x="120.524727" xlink:href="#m1dc6be7b77" y="268.432875"/>
     <use style="stroke:#000000;" x="123.365455" xlink:href="#m1dc6be7b77" y="287.70442"/>
     <use style="stroke:#000000;" x="126.206182" xlink:href="#m1dc6be7b77" y="378.503241"/>
     <use style="stroke:#000000;" x="129.046909" xlink:href="#m1dc6be7b77" y="379.438615"/>
     <use style="stroke:#000000;" x="131.887636" xlink:href="#m1dc6be7b77" y="394.176957"/>
     <use style="stroke:#000000;" x="134.728364" xlink:href="#m1dc6be7b77" y="395.109094"/>
     <use style="stroke:#000000;" x="137.569091" xlink:href="#m1dc6be7b77" y="398.267454"/>
     <use style="stroke:#000000;" x="140.409818" xlink:href="#m1dc6be7b77" y="394.777415"/>
     <use style="stroke:#000000;" x="143.250545" xlink:href="#m1dc6be7b77" y="400.819456"/>
     <use style="stroke:#000000;" x="146.091273" xlink:href="#m1dc6be7b77" y="402.390989"/>
     <use style="stroke:#000000;" x="148.932" xlink:href="#m1dc6be7b77" y="401.509657"/>
     <use style="stroke:#000000;" x="151.772727" xlink:href="#m1dc6be7b77" y="408.024858"/>
     <use style="stroke:#000000;" x="154.613455" xlink:href="#m1dc6be7b77" y="411.127398"/>
     <use style="stroke:#000000;" x="157.454182" xlink:href="#m1dc6be7b77" y="412.925252"/>
     <use style="stroke:#000000;" x="160.294909" xlink:href="#m1dc6be7b77" y="413.043505"/>
     <use style="stroke:#000000;" x="163.135636" xlink:href="#m1dc6be7b77" y="408.395942"/>
     <use style="stroke:#000000;" x="165.976364" xlink:href="#m1dc6be7b77" y="410.496669"/>
     <use style="stroke:#000000;" x="168.817091" xlink:href="#m1dc6be7b77" y="414.409619"/>
     <use style="stroke:#000000;" x="171.657818" xlink:href="#m1dc6be7b77" y="418.656466"/>
     <use style="stroke:#000000;" x="174.498545" xlink:href="#m1dc6be7b77" y="419.437866"/>
     <use style="stroke:#000000;" x="177.339273" xlink:href="#m1dc6be7b77" y="416.52916"/>
     <use style="stroke:#000000;" x="180.18" xlink:href="#m1dc6be7b77" y="414.69108"/>
     <use style="stroke:#000000;" x="183.020727" xlink:href="#m1dc6be7b77" y="417.742002"/>
     <use style="stroke:#000000;" x="185.861455" xlink:href="#m1dc6be7b77" y="418.376251"/>
     <use style="stroke:#000000;" x="188.702182" xlink:href="#m1dc6be7b77" y="420.020645"/>
     <use style="stroke:#000000;" x="191.542909" xlink:href="#m1dc6be7b77" y="421.215256"/>
     <use style="stroke:#000000;" x="194.383636" xlink:href="#m1dc6be7b77" y="418.6342"/>
     <use style="stroke:#000000;" x="197.224364" xlink:href="#m1dc6be7b77" y="422.967534"/>
     <use style="stroke:#000000;" x="200.065091" xlink:href="#m1dc6be7b77" y="415.109955"/>
     <use style="stroke:#000000;" x="202.905818" xlink:href="#m1dc6be7b77" y="413.857924"/>
     <use style="stroke:#000000;" x="205.746545" xlink:href="#m1dc6be7b77" y="413.885709"/>
     <use style="stroke:#000000;" x="208.587273" xlink:href="#m1dc6be7b77" y="417.249611"/>
     <use style="stroke:#000000;" x="211.428" xlink:href="#m1dc6be7b77" y="415.401439"/>
     <use style="stroke:#000000;" x="214.268727" xlink:href="#m1dc6be7b77" y="416.135773"/>
     <use style="stroke:#000000;" x="217.109455" xlink:href="#m1dc6be7b77" y="418.451141"/>
     <use style="stroke:#000000;" x="219.950182" xlink:href="#m1dc6be7b77" y="416.545847"/>
     <use style="stroke:#000000;" x="222.790909" xlink:href="#m1dc6be7b77" y="418.439977"/>
     <use style="stroke:#000000;" x="225.631636" xlink:href="#m1dc6be7b77" y="416.556022"/>
     <use style="stroke:#000000;" x="228.472364" xlink:href="#m1dc6be7b77" y="418.278568"/>
     <use style="stroke:#000000;" x="231.313091" xlink:href="#m1dc6be7b77" y="415.432232"/>
     <use style="stroke:#000000;" x="234.153818" xlink:href="#m1dc6be7b77" y="414.390785"/>
     <use style="stroke:#000000;" x="236.994545" xlink:href="#m1dc6be7b77" y="415.056633"/>
     <use style="stroke:#000000;" x="239.835273" xlink:href="#m1dc6be7b77" y="414.670084"/>
     <use style="stroke:#000000;" x="242.676" xlink:href="#m1dc6be7b77" y="405.431248"/>
     <use style="stroke:#000000;" x="245.516727" xlink:href="#m1dc6be7b77" y="408.350386"/>
     <use style="stroke:#000000;" x="248.357455" xlink:href="#m1dc6be7b77" y="407.602973"/>
     <use style="stroke:#000000;" x="251.198182" xlink:href="#m1dc6be7b77" y="400.751574"/>
     <use style="stroke:#000000;" x="254.038909" xlink:href="#m1dc6be7b77" y="404.475933"/>
     <use style="stroke:#000000;" x="256.879636" xlink:href="#m1dc6be7b77" y="406.943745"/>
     <use style="stroke:#000000;" x="259.720364" xlink:href="#m1dc6be7b77" y="399.314912"/>
     <use style="stroke:#000000;" x="262.561091" xlink:href="#m1dc6be7b77" y="401.914026"/>
     <use style="stroke:#000000;" x="265.401818" xlink:href="#m1dc6be7b77" y="406.971183"/>
     <use style="stroke:#000000;" x="268.242545" xlink:href="#m1dc6be7b77" y="403.775693"/>
     <use style="stroke:#000000;" x="271.083273" xlink:href="#m1dc6be7b77" y="407.63722"/>
     <use style="stroke:#000000;" x="273.924" xlink:href="#m1dc6be7b77" y="404.563129"/>
     <use style="stroke:#000000;" x="276.764727" xlink:href="#m1dc6be7b77" y="411.431871"/>
     <use style="stroke:#000000;" x="279.605455" xlink:href="#m1dc6be7b77" y="404.371529"/>
     <use style="stroke:#000000;" x="282.446182" xlink:href="#m1dc6be7b77" y="404.196055"/>
     <use style="stroke:#000000;" x="285.286909" xlink:href="#m1dc6be7b77" y="407.174225"/>
     <use style="stroke:#000000;" x="288.127636" xlink:href="#m1dc6be7b77" y="402.836829"/>
     <use style="stroke:#000000;" x="290.968364" xlink:href="#m1dc6be7b77" y="406.322467"/>
     <use style="stroke:#000000;" x="293.809091" xlink:href="#m1dc6be7b77" y="408.652797"/>
     <use style="stroke:#000000;" x="296.649818" xlink:href="#m1dc6be7b77" y="404.396655"/>
     <use style="stroke:#000000;" x="299.490545" xlink:href="#m1dc6be7b77" y="406.404751"/>
     <use style="stroke:#000000;" x="302.331273" xlink:href="#m1dc6be7b77" y="407.309113"/>
     <use style="stroke:#000000;" x="305.172" xlink:href="#m1dc6be7b77" y="402.461867"/>
     <use style="stroke:#000000;" x="308.012727" xlink:href="#m1dc6be7b77" y="405.797762"/>
     <use style="stroke:#000000;" x="310.853455" xlink:href="#m1dc6be7b77" y="399.9363"/>
     <use style="stroke:#000000;" x="313.694182" xlink:href="#m1dc6be7b77" y="402.325949"/>
     <use style="stroke:#000000;" x="316.534909" xlink:href="#m1dc6be7b77" y="402.37171"/>
     <use style="stroke:#000000;" x="319.375636" xlink:href="#m1dc6be7b77" y="401.908452"/>
     <use style="stroke:#000000;" x="322.216364" xlink:href="#m1dc6be7b77" y="400.6024"/>
     <use style="stroke:#000000;" x="325.057091" xlink:href="#m1dc6be7b77" y="401.206468"/>
     <use style="stroke:#000000;" x="327.897818" xlink:href="#m1dc6be7b77" y="399.129697"/>
     <use style="stroke:#000000;" x="330.738545" xlink:href="#m1dc6be7b77" y="399.677997"/>
     <use style="stroke:#000000;" x="333.579273" xlink:href="#m1dc6be7b77" y="400.509535"/>
     <use style="stroke:#000000;" x="336.42" xlink:href="#m1dc6be7b77" y="401.265177"/>
     <use style="stroke:#000000;" x="339.260727" xlink:href="#m1dc6be7b77" y="398.32255"/>
     <use style="stroke:#000000;" x="342.101455" xlink:href="#m1dc6be7b77" y="396.410033"/>
     <use style="stroke:#000000;" x="344.942182" xlink:href="#m1dc6be7b77" y="396.413246"/>
     <use style="stroke:#000000;" x="347.782909" xlink:href="#m1dc6be7b77" y="397.192896"/>
     <use style="stroke:#000000;" x="350.623636" xlink:href="#m1dc6be7b77" y="399.094017"/>
     <use style="stroke:#000000;" x="353.464364" xlink:href="#m1dc6be7b77" y="408.535034"/>
     <use style="stroke:#000000;" x="356.305091" xlink:href="#m1dc6be7b77" y="404.062579"/>
     <use style="stroke:#000000;" x="359.145818" xlink:href="#m1dc6be7b77" y="406.804999"/>
     <use style="stroke:#000000;" x="361.986545" xlink:href="#m1dc6be7b77" y="408.517835"/>
     <use style="stroke:#000000;" x="364.827273" xlink:href="#m1dc6be7b77" y="414.991492"/>
     <use style="stroke:#000000;" x="367.668" xlink:href="#m1dc6be7b77" y="411.288316"/>
     <use style="stroke:#000000;" x="370.508727" xlink:href="#m1dc6be7b77" y="404.484973"/>
     <use style="stroke:#000000;" x="373.349455" xlink:href="#m1dc6be7b77" y="406.121721"/>
     <use style="stroke:#000000;" x="376.190182" xlink:href="#m1dc6be7b77" y="406.339064"/>
     <use style="stroke:#000000;" x="379.030909" xlink:href="#m1dc6be7b77" y="405.183901"/>
     <use style="stroke:#000000;" x="381.871636" xlink:href="#m1dc6be7b77" y="404.514718"/>
     <use style="stroke:#000000;" x="384.712364" xlink:href="#m1dc6be7b77" y="409.022232"/>
     <use style="stroke:#000000;" x="387.553091" xlink:href="#m1dc6be7b77" y="405.729717"/>
     <use style="stroke:#000000;" x="390.393818" xlink:href="#m1dc6be7b77" y="408.578856"/>
     <use style="stroke:#000000;" x="393.234545" xlink:href="#m1dc6be7b77" y="408.274232"/>
     <use style="stroke:#000000;" x="396.075273" xlink:href="#m1dc6be7b77" y="410.980616"/>
     <use style="stroke:#000000;" x="398.916" xlink:href="#m1dc6be7b77" y="410.534171"/>
     <use style="stroke:#000000;" x="401.756727" xlink:href="#m1dc6be7b77" y="409.47535"/>
     <use style="stroke:#000000;" x="404.597455" xlink:href="#m1dc6be7b77" y="407.958487"/>
     <use style="stroke:#000000;" x="407.438182" xlink:href="#m1dc6be7b77" y="413.852221"/>
     <use style="stroke:#000000;" x="410.278909" xlink:href="#m1dc6be7b77" y="413.173185"/>
     <use style="stroke:#000000;" x="413.119636" xlink:href="#m1dc6be7b77" y="409.801944"/>
     <use style="stroke:#000000;" x="415.960364" xlink:href="#m1dc6be7b77" y="409.582461"/>
     <use style="stroke:#000000;" x="418.801091" xlink:href="#m1dc6be7b77" y="412.025686"/>
     <use style="stroke:#000000;" x="421.641818" xlink:href="#m1dc6be7b77" y="408.976238"/>
     <use style="stroke:#000000;" x="424.482545" xlink:href="#m1dc6be7b77" y="408.863799"/>
     <use style="stroke:#000000;" x="427.323273" xlink:href="#m1dc6be7b77" y="407.509067"/>
     <use style="stroke:#000000;" x="430.164" xlink:href="#m1dc6be7b77" y="412.022327"/>
     <use style="stroke:#000000;" x="433.004727" xlink:href="#m1dc6be7b77" y="410.137267"/>
     <use style="stroke:#000000;" x="435.845455" xlink:href="#m1dc6be7b77" y="412.289724"/>
    </g>
   </g>
   <g id="patch_3">
    <path clip-path="url(#pcee9af0e52)" d="M 174.511328 377.114161 
L 174.498488 374.636484 
L 174.498526 376.35799 
L 168.817072 422.842883 
L 168.817091 423.703636 
z
" style="fill:#1f77b4;stroke:#000000;stroke-dasharray:3.7,1.6;stroke-dashoffset:0;stroke-linejoin:miter;"/>
   </g>
   <g id="matplotlib.axis_1">
    <g id="xtick_1">
     <g id="line2d_1">
      <path clip-path="url(#pcee9af0e52)" d="M 75.073091 441 
L 75.073091 60.48 
" style="fill:none;stroke:#b0b0b0;stroke-linecap:square;stroke-opacity:0.5;stroke-width:0.8;"/>
     </g>
     <g id="line2d_2">
      <defs>
       <path d="M 0 0 
L 0 10 
" id="m6dd34b72f7" style="stroke:#000000;stroke-width:0.8;"/>
      </defs>
      <g>
       <use style="stroke:#000000;stroke-width:0.8;" x="75.073091" xlink:href="#m6dd34b72f7" y="441"/>
      </g>
     </g>
     <g id="text_1">
      <!-- 0 -->
      <g transform="translate(71.255591 463.618125)scale(0.12 -0.12)">
       <defs>
        <path d="M 31.78125 66.40625 
Q 24.171875 66.40625 20.328125 58.90625 
Q 16.5 51.421875 16.5 36.375 
Q 16.5 21.390625 20.328125 13.890625 
Q 24.171875 6.390625 31.78125 6.390625 
Q 39.453125 6.390625 43.28125 13.890625 
Q 47.125 21.390625 47.125 36.375 
Q 47.125 51.421875 43.28125 58.90625 
Q 39.453125 66.40625 31.78125 66.40625 
z
M 31.78125 74.21875 
Q 44.046875 74.21875 50.515625 64.515625 
Q 56.984375 54.828125 56.984375 36.375 
Q 56.984375 17.96875 50.515625 8.265625 
Q 44.046875 -1.421875 31.78125 -1.421875 
Q 19.53125 -1.421875 13.0625 8.265625 
Q 6.59375 17.96875 6.59375 36.375 
Q 6.59375 54.828125 13.0625 64.515625 
Q 19.53125 74.21875 31.78125 74.21875 
z
" id="DejaVuSans-48"/>
       </defs>
       <use xlink:href="#DejaVuSans-48"/>
      </g>
     </g>
    </g>
    <g id="xtick_2">
     <g id="line2d_3">
      <path clip-path="url(#pcee9af0e52)" d="M 131.887636 441 
L 131.887636 60.48 
" style="fill:none;stroke:#b0b0b0;stroke-linecap:square;stroke-opacity:0.5;stroke-width:0.8;"/>
     </g>
     <g id="line2d_4">
      <g>
       <use style="stroke:#000000;stroke-width:0.8;" x="131.887636" xlink:href="#m6dd34b72f7" y="441"/>
      </g>
     </g>
     <g id="text_2">
      <!-- 20 -->
      <g transform="translate(124.252636 463.618125)scale(0.12 -0.12)">
       <defs>
        <path d="M 19.1875 8.296875 
L 53.609375 8.296875 
L 53.609375 0 
L 7.328125 0 
L 7.328125 8.296875 
Q 12.9375 14.109375 22.625 23.890625 
Q 32.328125 33.6875 34.8125 36.53125 
Q 39.546875 41.84375 41.421875 45.53125 
Q 43.3125 49.21875 43.3125 52.78125 
Q 43.3125 58.59375 39.234375 62.25 
Q 35.15625 65.921875 28.609375 65.921875 
Q 23.96875 65.921875 18.8125 64.3125 
Q 13.671875 62.703125 7.8125 59.421875 
L 7.8125 69.390625 
Q 13.765625 71.78125 18.9375 73 
Q 24.125 74.21875 28.421875 74.21875 
Q 39.75 74.21875 46.484375 68.546875 
Q 53.21875 62.890625 53.21875 53.421875 
Q 53.21875 48.921875 51.53125 44.890625 
Q 49.859375 40.875 45.40625 35.40625 
Q 44.1875 33.984375 37.640625 27.21875 
Q 31.109375 20.453125 19.1875 8.296875 
z
" id="DejaVuSans-50"/>
       </defs>
       <use xlink:href="#DejaVuSans-50"/>
       <use x="63.623047" xlink:href="#DejaVuSans-48"/>
      </g>
     </g>
    </g>
    <g id="xtick_3">
     <g id="line2d_5">
      <path clip-path="url(#pcee9af0e52)" d="M 188.702182 441 
L 188.702182 60.48 
" style="fill:none;stroke:#b0b0b0;stroke-linecap:square;stroke-opacity:0.5;stroke-width:0.8;"/>
     </g>
     <g id="line2d_6">
      <g>
       <use style="stroke:#000000;stroke-width:0.8;" x="188.702182" xlink:href="#m6dd34b72f7" y="441"/>
      </g>
     </g>
     <g id="text_3">
      <!-- 40 -->
      <g transform="translate(181.067182 463.618125)scale(0.12 -0.12)">
       <defs>
        <path d="M 37.796875 64.3125 
L 12.890625 25.390625 
L 37.796875 25.390625 
z
M 35.203125 72.90625 
L 47.609375 72.90625 
L 47.609375 25.390625 
L 58.015625 25.390625 
L 58.015625 17.1875 
L 47.609375 17.1875 
L 47.609375 0 
L 37.796875 0 
L 37.796875 17.1875 
L 4.890625 17.1875 
L 4.890625 26.703125 
z
" id="DejaVuSans-52"/>
       </defs>
       <use xlink:href="#DejaVuSans-52"/>
       <use x="63.623047" xlink:href="#DejaVuSans-48"/>
      </g>
     </g>
    </g>
    <g id="xtick_4">
     <g id="line2d_7">
      <path clip-path="url(#pcee9af0e52)" d="M 245.516727 441 
L 245.516727 60.48 
" style="fill:none;stroke:#b0b0b0;stroke-linecap:square;stroke-opacity:0.5;stroke-width:0.8;"/>
     </g>
     <g id="line2d_8">
      <g>
       <use style="stroke:#000000;stroke-width:0.8;" x="245.516727" xlink:href="#m6dd34b72f7" y="441"/>
      </g>
     </g>
     <g id="text_4">
      <!-- 60 -->
      <g transform="translate(237.881727 463.618125)scale(0.12 -0.12)">
       <defs>
        <path d="M 33.015625 40.375 
Q 26.375 40.375 22.484375 35.828125 
Q 18.609375 31.296875 18.609375 23.390625 
Q 18.609375 15.53125 22.484375 10.953125 
Q 26.375 6.390625 33.015625 6.390625 
Q 39.65625 6.390625 43.53125 10.953125 
Q 47.40625 15.53125 47.40625 23.390625 
Q 47.40625 31.296875 43.53125 35.828125 
Q 39.65625 40.375 33.015625 40.375 
z
M 52.59375 71.296875 
L 52.59375 62.3125 
Q 48.875 64.0625 45.09375 64.984375 
Q 41.3125 65.921875 37.59375 65.921875 
Q 27.828125 65.921875 22.671875 59.328125 
Q 17.53125 52.734375 16.796875 39.40625 
Q 19.671875 43.65625 24.015625 45.921875 
Q 28.375 48.1875 33.59375 48.1875 
Q 44.578125 48.1875 50.953125 41.515625 
Q 57.328125 34.859375 57.328125 23.390625 
Q 57.328125 12.15625 50.6875 5.359375 
Q 44.046875 -1.421875 33.015625 -1.421875 
Q 20.359375 -1.421875 13.671875 8.265625 
Q 6.984375 17.96875 6.984375 36.375 
Q 6.984375 53.65625 15.1875 63.9375 
Q 23.390625 74.21875 37.203125 74.21875 
Q 40.921875 74.21875 44.703125 73.484375 
Q 48.484375 72.75 52.59375 71.296875 
z
" id="DejaVuSans-54"/>
       </defs>
       <use xlink:href="#DejaVuSans-54"/>
       <use x="63.623047" xlink:href="#DejaVuSans-48"/>
      </g>
     </g>
    </g>
    <g id="xtick_5">
     <g id="line2d_9">
      <path clip-path="url(#pcee9af0e52)" d="M 302.331273 441 
L 302.331273 60.48 
" style="fill:none;stroke:#b0b0b0;stroke-linecap:square;stroke-opacity:0.5;stroke-width:0.8;"/>
     </g>
     <g id="line2d_10">
      <g>
       <use style="stroke:#000000;stroke-width:0.8;" x="302.331273" xlink:href="#m6dd34b72f7" y="441"/>
      </g>
     </g>
     <g id="text_5">
      <!-- 80 -->
      <g transform="translate(294.696273 463.618125)scale(0.12 -0.12)">
       <defs>
        <path d="M 31.78125 34.625 
Q 24.75 34.625 20.71875 30.859375 
Q 16.703125 27.09375 16.703125 20.515625 
Q 16.703125 13.921875 20.71875 10.15625 
Q 24.75 6.390625 31.78125 6.390625 
Q 38.8125 6.390625 42.859375 10.171875 
Q 46.921875 13.96875 46.921875 20.515625 
Q 46.921875 27.09375 42.890625 30.859375 
Q 38.875 34.625 31.78125 34.625 
z
M 21.921875 38.8125 
Q 15.578125 40.375 12.03125 44.71875 
Q 8.5 49.078125 8.5 55.328125 
Q 8.5 64.0625 14.71875 69.140625 
Q 20.953125 74.21875 31.78125 74.21875 
Q 42.671875 74.21875 48.875 69.140625 
Q 55.078125 64.0625 55.078125 55.328125 
Q 55.078125 49.078125 51.53125 44.71875 
Q 48 40.375 41.703125 38.8125 
Q 48.828125 37.15625 52.796875 32.3125 
Q 56.78125 27.484375 56.78125 20.515625 
Q 56.78125 9.90625 50.3125 4.234375 
Q 43.84375 -1.421875 31.78125 -1.421875 
Q 19.734375 -1.421875 13.25 4.234375 
Q 6.78125 9.90625 6.78125 20.515625 
Q 6.78125 27.484375 10.78125 32.3125 
Q 14.796875 37.15625 21.921875 38.8125 
z
M 18.3125 54.390625 
Q 18.3125 48.734375 21.84375 45.5625 
Q 25.390625 42.390625 31.78125 42.390625 
Q 38.140625 42.390625 41.71875 45.5625 
Q 45.3125 48.734375 45.3125 54.390625 
Q 45.3125 60.0625 41.71875 63.234375 
Q 38.140625 66.40625 31.78125 66.40625 
Q 25.390625 66.40625 21.84375 63.234375 
Q 18.3125 60.0625 18.3125 54.390625 
z
" id="DejaVuSans-56"/>
       </defs>
       <use xlink:href="#DejaVuSans-56"/>
       <use x="63.623047" xlink:href="#DejaVuSans-48"/>
      </g>
     </g>
    </g>
    <g id="xtick_6">
     <g id="line2d_11">
      <path clip-path="url(#pcee9af0e52)" d="M 359.145818 441 
L 359.145818 60.48 
" style="fill:none;stroke:#b0b0b0;stroke-linecap:square;stroke-opacity:0.5;stroke-width:0.8;"/>
     </g>
     <g id="line2d_12">
      <g>
       <use style="stroke:#000000;stroke-width:0.8;" x="359.145818" xlink:href="#m6dd34b72f7" y="441"/>
      </g>
     </g>
     <g id="text_6">
      <!-- 100 -->
      <g transform="translate(347.693318 463.618125)scale(0.12 -0.12)">
       <defs>
        <path d="M 12.40625 8.296875 
L 28.515625 8.296875 
L 28.515625 63.921875 
L 10.984375 60.40625 
L 10.984375 69.390625 
L 28.421875 72.90625 
L 38.28125 72.90625 
L 38.28125 8.296875 
L 54.390625 8.296875 
L 54.390625 0 
L 12.40625 0 
z
" id="DejaVuSans-49"/>
       </defs>
       <use xlink:href="#DejaVuSans-49"/>
       <use x="63.623047" xlink:href="#DejaVuSans-48"/>
       <use x="127.246094" xlink:href="#DejaVuSans-48"/>
      </g>
     </g>
    </g>
    <g id="xtick_7">
     <g id="line2d_13">
      <path clip-path="url(#pcee9af0e52)" d="M 415.960364 441 
L 415.960364 60.48 
" style="fill:none;stroke:#b0b0b0;stroke-linecap:square;stroke-opacity:0.5;stroke-width:0.8;"/>
     </g>
     <g id="line2d_14">
      <g>
       <use style="stroke:#000000;stroke-width:0.8;" x="415.960364" xlink:href="#m6dd34b72f7" y="441"/>
      </g>
     </g>
     <g id="text_7">
      <!-- 120 -->
      <g transform="translate(404.507864 463.618125)scale(0.12 -0.12)">
       <use xlink:href="#DejaVuSans-49"/>
       <use x="63.623047" xlink:href="#DejaVuSans-50"/>
       <use x="127.246094" xlink:href="#DejaVuSans-48"/>
      </g>
     </g>
    </g>
    <g id="text_8">
     <!-- Count of heuristic features -->
     <g transform="translate(164.988906 480.751562)scale(0.14 -0.14)">
      <defs>
       <path d="M 64.40625 67.28125 
L 64.40625 56.890625 
Q 59.421875 61.53125 53.78125 63.8125 
Q 48.140625 66.109375 41.796875 66.109375 
Q 29.296875 66.109375 22.65625 58.46875 
Q 16.015625 50.828125 16.015625 36.375 
Q 16.015625 21.96875 22.65625 14.328125 
Q 29.296875 6.6875 41.796875 6.6875 
Q 48.140625 6.6875 53.78125 8.984375 
Q 59.421875 11.28125 64.40625 15.921875 
L 64.40625 5.609375 
Q 59.234375 2.09375 53.4375 0.328125 
Q 47.65625 -1.421875 41.21875 -1.421875 
Q 24.65625 -1.421875 15.125 8.703125 
Q 5.609375 18.84375 5.609375 36.375 
Q 5.609375 53.953125 15.125 64.078125 
Q 24.65625 74.21875 41.21875 74.21875 
Q 47.75 74.21875 53.53125 72.484375 
Q 59.328125 70.75 64.40625 67.28125 
z
" id="DejaVuSans-67"/>
       <path d="M 30.609375 48.390625 
Q 23.390625 48.390625 19.1875 42.75 
Q 14.984375 37.109375 14.984375 27.296875 
Q 14.984375 17.484375 19.15625 11.84375 
Q 23.34375 6.203125 30.609375 6.203125 
Q 37.796875 6.203125 41.984375 11.859375 
Q 46.1875 17.53125 46.1875 27.296875 
Q 46.1875 37.015625 41.984375 42.703125 
Q 37.796875 48.390625 30.609375 48.390625 
z
M 30.609375 56 
Q 42.328125 56 49.015625 48.375 
Q 55.71875 40.765625 55.71875 27.296875 
Q 55.71875 13.875 49.015625 6.21875 
Q 42.328125 -1.421875 30.609375 -1.421875 
Q 18.84375 -1.421875 12.171875 6.21875 
Q 5.515625 13.875 5.515625 27.296875 
Q 5.515625 40.765625 12.171875 48.375 
Q 18.84375 56 30.609375 56 
z
" id="DejaVuSans-111"/>
       <path d="M 8.5 21.578125 
L 8.5 54.6875 
L 17.484375 54.6875 
L 17.484375 21.921875 
Q 17.484375 14.15625 20.5 10.265625 
Q 23.53125 6.390625 29.59375 6.390625 
Q 36.859375 6.390625 41.078125 11.03125 
Q 45.3125 15.671875 45.3125 23.6875 
L 45.3125 54.6875 
L 54.296875 54.6875 
L 54.296875 0 
L 45.3125 0 
L 45.3125 8.40625 
Q 42.046875 3.421875 37.71875 1 
Q 33.40625 -1.421875 27.6875 -1.421875 
Q 18.265625 -1.421875 13.375 4.4375 
Q 8.5 10.296875 8.5 21.578125 
z
M 31.109375 56 
z
" id="DejaVuSans-117"/>
       <path d="M 54.890625 33.015625 
L 54.890625 0 
L 45.90625 0 
L 45.90625 32.71875 
Q 45.90625 40.484375 42.875 44.328125 
Q 39.84375 48.1875 33.796875 48.1875 
Q 26.515625 48.1875 22.3125 43.546875 
Q 18.109375 38.921875 18.109375 30.90625 
L 18.109375 0 
L 9.078125 0 
L 9.078125 54.6875 
L 18.109375 54.6875 
L 18.109375 46.1875 
Q 21.34375 51.125 25.703125 53.5625 
Q 30.078125 56 35.796875 56 
Q 45.21875 56 50.046875 50.171875 
Q 54.890625 44.34375 54.890625 33.015625 
z
" id="DejaVuSans-110"/>
       <path d="M 18.3125 70.21875 
L 18.3125 54.6875 
L 36.8125 54.6875 
L 36.8125 47.703125 
L 18.3125 47.703125 
L 18.3125 18.015625 
Q 18.3125 11.328125 20.140625 9.421875 
Q 21.96875 7.515625 27.59375 7.515625 
L 36.8125 7.515625 
L 36.8125 0 
L 27.59375 0 
Q 17.1875 0 13.234375 3.875 
Q 9.28125 7.765625 9.28125 18.015625 
L 9.28125 47.703125 
L 2.6875 47.703125 
L 2.6875 54.6875 
L 9.28125 54.6875 
L 9.28125 70.21875 
z
" id="DejaVuSans-116"/>
       <path id="DejaVuSans-32"/>
       <path d="M 37.109375 75.984375 
L 37.109375 68.5 
L 28.515625 68.5 
Q 23.6875 68.5 21.796875 66.546875 
Q 19.921875 64.59375 19.921875 59.515625 
L 19.921875 54.6875 
L 34.71875 54.6875 
L 34.71875 47.703125 
L 19.921875 47.703125 
L 19.921875 0 
L 10.890625 0 
L 10.890625 47.703125 
L 2.296875 47.703125 
L 2.296875 54.6875 
L 10.890625 54.6875 
L 10.890625 58.5 
Q 10.890625 67.625 15.140625 71.796875 
Q 19.390625 75.984375 28.609375 75.984375 
z
" id="DejaVuSans-102"/>
       <path d="M 54.890625 33.015625 
L 54.890625 0 
L 45.90625 0 
L 45.90625 32.71875 
Q 45.90625 40.484375 42.875 44.328125 
Q 39.84375 48.1875 33.796875 48.1875 
Q 26.515625 48.1875 22.3125 43.546875 
Q 18.109375 38.921875 18.109375 30.90625 
L 18.109375 0 
L 9.078125 0 
L 9.078125 75.984375 
L 18.109375 75.984375 
L 18.109375 46.1875 
Q 21.34375 51.125 25.703125 53.5625 
Q 30.078125 56 35.796875 56 
Q 45.21875 56 50.046875 50.171875 
Q 54.890625 44.34375 54.890625 33.015625 
z
" id="DejaVuSans-104"/>
       <path d="M 56.203125 29.59375 
L 56.203125 25.203125 
L 14.890625 25.203125 
Q 15.484375 15.921875 20.484375 11.0625 
Q 25.484375 6.203125 34.421875 6.203125 
Q 39.59375 6.203125 44.453125 7.46875 
Q 49.3125 8.734375 54.109375 11.28125 
L 54.109375 2.78125 
Q 49.265625 0.734375 44.1875 -0.34375 
Q 39.109375 -1.421875 33.890625 -1.421875 
Q 20.796875 -1.421875 13.15625 6.1875 
Q 5.515625 13.8125 5.515625 26.8125 
Q 5.515625 40.234375 12.765625 48.109375 
Q 20.015625 56 32.328125 56 
Q 43.359375 56 49.78125 48.890625 
Q 56.203125 41.796875 56.203125 29.59375 
z
M 47.21875 32.234375 
Q 47.125 39.59375 43.09375 43.984375 
Q 39.0625 48.390625 32.421875 48.390625 
Q 24.90625 48.390625 20.390625 44.140625 
Q 15.875 39.890625 15.1875 32.171875 
z
" id="DejaVuSans-101"/>
       <path d="M 41.109375 46.296875 
Q 39.59375 47.171875 37.8125 47.578125 
Q 36.03125 48 33.890625 48 
Q 26.265625 48 22.1875 43.046875 
Q 18.109375 38.09375 18.109375 28.8125 
L 18.109375 0 
L 9.078125 0 
L 9.078125 54.6875 
L 18.109375 54.6875 
L 18.109375 46.1875 
Q 20.953125 51.171875 25.484375 53.578125 
Q 30.03125 56 36.53125 56 
Q 37.453125 56 38.578125 55.875 
Q 39.703125 55.765625 41.0625 55.515625 
z
" id="DejaVuSans-114"/>
       <path d="M 9.421875 54.6875 
L 18.40625 54.6875 
L 18.40625 0 
L 9.421875 0 
z
M 9.421875 75.984375 
L 18.40625 75.984375 
L 18.40625 64.59375 
L 9.421875 64.59375 
z
" id="DejaVuSans-105"/>
       <path d="M 44.28125 53.078125 
L 44.28125 44.578125 
Q 40.484375 46.53125 36.375 47.5 
Q 32.28125 48.484375 27.875 48.484375 
Q 21.1875 48.484375 17.84375 46.4375 
Q 14.5 44.390625 14.5 40.28125 
Q 14.5 37.15625 16.890625 35.375 
Q 19.28125 33.59375 26.515625 31.984375 
L 29.59375 31.296875 
Q 39.15625 29.25 43.1875 25.515625 
Q 47.21875 21.78125 47.21875 15.09375 
Q 47.21875 7.46875 41.1875 3.015625 
Q 35.15625 -1.421875 24.609375 -1.421875 
Q 20.21875 -1.421875 15.453125 -0.5625 
Q 10.6875 0.296875 5.421875 2 
L 5.421875 11.28125 
Q 10.40625 8.6875 15.234375 7.390625 
Q 20.0625 6.109375 24.8125 6.109375 
Q 31.15625 6.109375 34.5625 8.28125 
Q 37.984375 10.453125 37.984375 14.40625 
Q 37.984375 18.0625 35.515625 20.015625 
Q 33.0625 21.96875 24.703125 23.78125 
L 21.578125 24.515625 
Q 13.234375 26.265625 9.515625 29.90625 
Q 5.8125 33.546875 5.8125 39.890625 
Q 5.8125 47.609375 11.28125 51.796875 
Q 16.75 56 26.8125 56 
Q 31.78125 56 36.171875 55.265625 
Q 40.578125 54.546875 44.28125 53.078125 
z
" id="DejaVuSans-115"/>
       <path d="M 48.78125 52.59375 
L 48.78125 44.1875 
Q 44.96875 46.296875 41.140625 47.34375 
Q 37.3125 48.390625 33.40625 48.390625 
Q 24.65625 48.390625 19.8125 42.84375 
Q 14.984375 37.3125 14.984375 27.296875 
Q 14.984375 17.28125 19.8125 11.734375 
Q 24.65625 6.203125 33.40625 6.203125 
Q 37.3125 6.203125 41.140625 7.25 
Q 44.96875 8.296875 48.78125 10.40625 
L 48.78125 2.09375 
Q 45.015625 0.34375 40.984375 -0.53125 
Q 36.96875 -1.421875 32.421875 -1.421875 
Q 20.0625 -1.421875 12.78125 6.34375 
Q 5.515625 14.109375 5.515625 27.296875 
Q 5.515625 40.671875 12.859375 48.328125 
Q 20.21875 56 33.015625 56 
Q 37.15625 56 41.109375 55.140625 
Q 45.0625 54.296875 48.78125 52.59375 
z
" id="DejaVuSans-99"/>
       <path d="M 34.28125 27.484375 
Q 23.390625 27.484375 19.1875 25 
Q 14.984375 22.515625 14.984375 16.5 
Q 14.984375 11.71875 18.140625 8.90625 
Q 21.296875 6.109375 26.703125 6.109375 
Q 34.1875 6.109375 38.703125 11.40625 
Q 43.21875 16.703125 43.21875 25.484375 
L 43.21875 27.484375 
z
M 52.203125 31.203125 
L 52.203125 0 
L 43.21875 0 
L 43.21875 8.296875 
Q 40.140625 3.328125 35.546875 0.953125 
Q 30.953125 -1.421875 24.3125 -1.421875 
Q 15.921875 -1.421875 10.953125 3.296875 
Q 6 8.015625 6 15.921875 
Q 6 25.140625 12.171875 29.828125 
Q 18.359375 34.515625 30.609375 34.515625 
L 43.21875 34.515625 
L 43.21875 35.40625 
Q 43.21875 41.609375 39.140625 45 
Q 35.0625 48.390625 27.6875 48.390625 
Q 23 48.390625 18.546875 47.265625 
Q 14.109375 46.140625 10.015625 43.890625 
L 10.015625 52.203125 
Q 14.9375 54.109375 19.578125 55.046875 
Q 24.21875 56 28.609375 56 
Q 40.484375 56 46.34375 49.84375 
Q 52.203125 43.703125 52.203125 31.203125 
z
" id="DejaVuSans-97"/>
      </defs>
      <use xlink:href="#DejaVuSans-67"/>
      <use x="69.824219" xlink:href="#DejaVuSans-111"/>
      <use x="131.005859" xlink:href="#DejaVuSans-117"/>
      <use x="194.384766" xlink:href="#DejaVuSans-110"/>
      <use x="257.763672" xlink:href="#DejaVuSans-116"/>
      <use x="296.972656" xlink:href="#DejaVuSans-32"/>
      <use x="328.759766" xlink:href="#DejaVuSans-111"/>
      <use x="389.941406" xlink:href="#DejaVuSans-102"/>
      <use x="425.146484" xlink:href="#DejaVuSans-32"/>
      <use x="456.933594" xlink:href="#DejaVuSans-104"/>
      <use x="520.3125" xlink:href="#DejaVuSans-101"/>
      <use x="581.835938" xlink:href="#DejaVuSans-117"/>
      <use x="645.214844" xlink:href="#DejaVuSans-114"/>
      <use x="686.328125" xlink:href="#DejaVuSans-105"/>
      <use x="714.111328" xlink:href="#DejaVuSans-115"/>
      <use x="766.210938" xlink:href="#DejaVuSans-116"/>
      <use x="805.419922" xlink:href="#DejaVuSans-105"/>
      <use x="833.203125" xlink:href="#DejaVuSans-99"/>
      <use x="888.183594" xlink:href="#DejaVuSans-32"/>
      <use x="919.970703" xlink:href="#DejaVuSans-102"/>
      <use x="955.175781" xlink:href="#DejaVuSans-101"/>
      <use x="1016.699219" xlink:href="#DejaVuSans-97"/>
      <use x="1077.978516" xlink:href="#DejaVuSans-116"/>
      <use x="1117.1875" xlink:href="#DejaVuSans-117"/>
      <use x="1180.566406" xlink:href="#DejaVuSans-114"/>
      <use x="1219.429688" xlink:href="#DejaVuSans-101"/>
      <use x="1280.953125" xlink:href="#DejaVuSans-115"/>
     </g>
    </g>
   </g>
   <g id="matplotlib.axis_2">
    <g id="ytick_1">
     <g id="line2d_15">
      <path clip-path="url(#pcee9af0e52)" d="M 63 406.487009 
L 453.6 406.487009 
" style="fill:none;stroke:#b0b0b0;stroke-linecap:square;stroke-opacity:0.5;stroke-width:0.8;"/>
     </g>
     <g id="line2d_16">
      <defs>
       <path d="M 0 0 
L -10 0 
" id="m2bd752467f" style="stroke:#000000;stroke-width:0.8;"/>
      </defs>
      <g>
       <use style="stroke:#000000;stroke-width:0.8;" x="63" xlink:href="#m2bd752467f" y="406.487009"/>
      </g>
     </g>
     <g id="text_9">
      <!-- 0.275 -->
      <g transform="translate(15.14625 411.046072)scale(0.12 -0.12)">
       <defs>
        <path d="M 10.6875 12.40625 
L 21 12.40625 
L 21 0 
L 10.6875 0 
z
" id="DejaVuSans-46"/>
        <path d="M 8.203125 72.90625 
L 55.078125 72.90625 
L 55.078125 68.703125 
L 28.609375 0 
L 18.3125 0 
L 43.21875 64.59375 
L 8.203125 64.59375 
z
" id="DejaVuSans-55"/>
        <path d="M 10.796875 72.90625 
L 49.515625 72.90625 
L 49.515625 64.59375 
L 19.828125 64.59375 
L 19.828125 46.734375 
Q 21.96875 47.46875 24.109375 47.828125 
Q 26.265625 48.1875 28.421875 48.1875 
Q 40.625 48.1875 47.75 41.5 
Q 54.890625 34.8125 54.890625 23.390625 
Q 54.890625 11.625 47.5625 5.09375 
Q 40.234375 -1.421875 26.90625 -1.421875 
Q 22.3125 -1.421875 17.546875 -0.640625 
Q 12.796875 0.140625 7.71875 1.703125 
L 7.71875 11.625 
Q 12.109375 9.234375 16.796875 8.0625 
Q 21.484375 6.890625 26.703125 6.890625 
Q 35.15625 6.890625 40.078125 11.328125 
Q 45.015625 15.765625 45.015625 23.390625 
Q 45.015625 31 40.078125 35.4375 
Q 35.15625 39.890625 26.703125 39.890625 
Q 22.75 39.890625 18.8125 39.015625 
Q 14.890625 38.140625 10.796875 36.28125 
z
" id="DejaVuSans-53"/>
       </defs>
       <use xlink:href="#DejaVuSans-48"/>
       <use x="63.623047" xlink:href="#DejaVuSans-46"/>
       <use x="95.410156" xlink:href="#DejaVuSans-50"/>
       <use x="159.033203" xlink:href="#DejaVuSans-55"/>
       <use x="222.65625" xlink:href="#DejaVuSans-53"/>
      </g>
     </g>
    </g>
    <g id="ytick_2">
     <g id="line2d_17">
      <path clip-path="url(#pcee9af0e52)" d="M 63 363.445441 
L 453.6 363.445441 
" style="fill:none;stroke:#b0b0b0;stroke-linecap:square;stroke-opacity:0.5;stroke-width:0.8;"/>
     </g>
     <g id="line2d_18">
      <g>
       <use style="stroke:#000000;stroke-width:0.8;" x="63" xlink:href="#m2bd752467f" y="363.445441"/>
      </g>
     </g>
     <g id="text_10">
      <!-- 0.300 -->
      <g transform="translate(15.14625 368.004504)scale(0.12 -0.12)">
       <defs>
        <path d="M 40.578125 39.3125 
Q 47.65625 37.796875 51.625 33 
Q 55.609375 28.21875 55.609375 21.1875 
Q 55.609375 10.40625 48.1875 4.484375 
Q 40.765625 -1.421875 27.09375 -1.421875 
Q 22.515625 -1.421875 17.65625 -0.515625 
Q 12.796875 0.390625 7.625 2.203125 
L 7.625 11.71875 
Q 11.71875 9.328125 16.59375 8.109375 
Q 21.484375 6.890625 26.8125 6.890625 
Q 36.078125 6.890625 40.9375 10.546875 
Q 45.796875 14.203125 45.796875 21.1875 
Q 45.796875 27.640625 41.28125 31.265625 
Q 36.765625 34.90625 28.71875 34.90625 
L 20.21875 34.90625 
L 20.21875 43.015625 
L 29.109375 43.015625 
Q 36.375 43.015625 40.234375 45.921875 
Q 44.09375 48.828125 44.09375 54.296875 
Q 44.09375 59.90625 40.109375 62.90625 
Q 36.140625 65.921875 28.71875 65.921875 
Q 24.65625 65.921875 20.015625 65.03125 
Q 15.375 64.15625 9.8125 62.3125 
L 9.8125 71.09375 
Q 15.4375 72.65625 20.34375 73.4375 
Q 25.25 74.21875 29.59375 74.21875 
Q 40.828125 74.21875 47.359375 69.109375 
Q 53.90625 64.015625 53.90625 55.328125 
Q 53.90625 49.265625 50.4375 45.09375 
Q 46.96875 40.921875 40.578125 39.3125 
z
" id="DejaVuSans-51"/>
       </defs>
       <use xlink:href="#DejaVuSans-48"/>
       <use x="63.623047" xlink:href="#DejaVuSans-46"/>
       <use x="95.410156" xlink:href="#DejaVuSans-51"/>
       <use x="159.033203" xlink:href="#DejaVuSans-48"/>
       <use x="222.65625" xlink:href="#DejaVuSans-48"/>
      </g>
     </g>
    </g>
    <g id="ytick_3">
     <g id="line2d_19">
      <path clip-path="url(#pcee9af0e52)" d="M 63 320.403873 
L 453.6 320.403873 
" style="fill:none;stroke:#b0b0b0;stroke-linecap:square;stroke-opacity:0.5;stroke-width:0.8;"/>
     </g>
     <g id="line2d_20">
      <g>
       <use style="stroke:#000000;stroke-width:0.8;" x="63" xlink:href="#m2bd752467f" y="320.403873"/>
      </g>
     </g>
     <g id="text_11">
      <!-- 0.325 -->
      <g transform="translate(15.14625 324.962936)scale(0.12 -0.12)">
       <use xlink:href="#DejaVuSans-48"/>
       <use x="63.623047" xlink:href="#DejaVuSans-46"/>
       <use x="95.410156" xlink:href="#DejaVuSans-51"/>
       <use x="159.033203" xlink:href="#DejaVuSans-50"/>
       <use x="222.65625" xlink:href="#DejaVuSans-53"/>
      </g>
     </g>
    </g>
    <g id="ytick_4">
     <g id="line2d_21">
      <path clip-path="url(#pcee9af0e52)" d="M 63 277.362305 
L 453.6 277.362305 
" style="fill:none;stroke:#b0b0b0;stroke-linecap:square;stroke-opacity:0.5;stroke-width:0.8;"/>
     </g>
     <g id="line2d_22">
      <g>
       <use style="stroke:#000000;stroke-width:0.8;" x="63" xlink:href="#m2bd752467f" y="277.362305"/>
      </g>
     </g>
     <g id="text_12">
      <!-- 0.350 -->
      <g transform="translate(15.14625 281.921368)scale(0.12 -0.12)">
       <use xlink:href="#DejaVuSans-48"/>
       <use x="63.623047" xlink:href="#DejaVuSans-46"/>
       <use x="95.410156" xlink:href="#DejaVuSans-51"/>
       <use x="159.033203" xlink:href="#DejaVuSans-53"/>
       <use x="222.65625" xlink:href="#DejaVuSans-48"/>
      </g>
     </g>
    </g>
    <g id="ytick_5">
     <g id="line2d_23">
      <path clip-path="url(#pcee9af0e52)" d="M 63 234.320737 
L 453.6 234.320737 
" style="fill:none;stroke:#b0b0b0;stroke-linecap:square;stroke-opacity:0.5;stroke-width:0.8;"/>
     </g>
     <g id="line2d_24">
      <g>
       <use style="stroke:#000000;stroke-width:0.8;" x="63" xlink:href="#m2bd752467f" y="234.320737"/>
      </g>
     </g>
     <g id="text_13">
      <!-- 0.375 -->
      <g transform="translate(15.14625 238.8798)scale(0.12 -0.12)">
       <use xlink:href="#DejaVuSans-48"/>
       <use x="63.623047" xlink:href="#DejaVuSans-46"/>
       <use x="95.410156" xlink:href="#DejaVuSans-51"/>
       <use x="159.033203" xlink:href="#DejaVuSans-55"/>
       <use x="222.65625" xlink:href="#DejaVuSans-53"/>
      </g>
     </g>
    </g>
    <g id="ytick_6">
     <g id="line2d_25">
      <path clip-path="url(#pcee9af0e52)" d="M 63 191.279169 
L 453.6 191.279169 
" style="fill:none;stroke:#b0b0b0;stroke-linecap:square;stroke-opacity:0.5;stroke-width:0.8;"/>
     </g>
     <g id="line2d_26">
      <g>
       <use style="stroke:#000000;stroke-width:0.8;" x="63" xlink:href="#m2bd752467f" y="191.279169"/>
      </g>
     </g>
     <g id="text_14">
      <!-- 0.400 -->
      <g transform="translate(15.14625 195.838231)scale(0.12 -0.12)">
       <use xlink:href="#DejaVuSans-48"/>
       <use x="63.623047" xlink:href="#DejaVuSans-46"/>
       <use x="95.410156" xlink:href="#DejaVuSans-52"/>
       <use x="159.033203" xlink:href="#DejaVuSans-48"/>
       <use x="222.65625" xlink:href="#DejaVuSans-48"/>
      </g>
     </g>
    </g>
    <g id="ytick_7">
     <g id="line2d_27">
      <path clip-path="url(#pcee9af0e52)" d="M 63 148.237601 
L 453.6 148.237601 
" style="fill:none;stroke:#b0b0b0;stroke-linecap:square;stroke-opacity:0.5;stroke-width:0.8;"/>
     </g>
     <g id="line2d_28">
      <g>
       <use style="stroke:#000000;stroke-width:0.8;" x="63" xlink:href="#m2bd752467f" y="148.237601"/>
      </g>
     </g>
     <g id="text_15">
      <!-- 0.425 -->
      <g transform="translate(15.14625 152.796663)scale(0.12 -0.12)">
       <use xlink:href="#DejaVuSans-48"/>
       <use x="63.623047" xlink:href="#DejaVuSans-46"/>
       <use x="95.410156" xlink:href="#DejaVuSans-52"/>
       <use x="159.033203" xlink:href="#DejaVuSans-50"/>
       <use x="222.65625" xlink:href="#DejaVuSans-53"/>
      </g>
     </g>
    </g>
    <g id="ytick_8">
     <g id="line2d_29">
      <path clip-path="url(#pcee9af0e52)" d="M 63 105.196033 
L 453.6 105.196033 
" style="fill:none;stroke:#b0b0b0;stroke-linecap:square;stroke-opacity:0.5;stroke-width:0.8;"/>
     </g>
     <g id="line2d_30">
      <g>
       <use style="stroke:#000000;stroke-width:0.8;" x="63" xlink:href="#m2bd752467f" y="105.196033"/>
      </g>
     </g>
     <g id="text_16">
      <!-- 0.450 -->
      <g transform="translate(15.14625 109.755095)scale(0.12 -0.12)">
       <use xlink:href="#DejaVuSans-48"/>
       <use x="63.623047" xlink:href="#DejaVuSans-46"/>
       <use x="95.410156" xlink:href="#DejaVuSans-52"/>
       <use x="159.033203" xlink:href="#DejaVuSans-53"/>
       <use x="222.65625" xlink:href="#DejaVuSans-48"/>
      </g>
     </g>
    </g>
    <g id="ytick_9">
     <g id="line2d_31">
      <path clip-path="url(#pcee9af0e52)" d="M 63 62.154465 
L 453.6 62.154465 
" style="fill:none;stroke:#b0b0b0;stroke-linecap:square;stroke-opacity:0.5;stroke-width:0.8;"/>
     </g>
     <g id="line2d_32">
      <g>
       <use style="stroke:#000000;stroke-width:0.8;" x="63" xlink:href="#m2bd752467f" y="62.154465"/>
      </g>
     </g>
     <g id="text_17">
      <!-- 0.475 -->
      <g transform="translate(15.14625 66.713527)scale(0.12 -0.12)">
       <use xlink:href="#DejaVuSans-48"/>
       <use x="63.623047" xlink:href="#DejaVuSans-46"/>
       <use x="95.410156" xlink:href="#DejaVuSans-52"/>
       <use x="159.033203" xlink:href="#DejaVuSans-55"/>
       <use x="222.65625" xlink:href="#DejaVuSans-53"/>
      </g>
     </g>
    </g>
    <g id="text_18">
     <!-- Mean Absolute Error -->
     <g transform="translate(8.234687 321.915781)rotate(-90)scale(0.14 -0.14)">
      <defs>
       <path d="M 9.8125 72.90625 
L 24.515625 72.90625 
L 43.109375 23.296875 
L 61.8125 72.90625 
L 76.515625 72.90625 
L 76.515625 0 
L 66.890625 0 
L 66.890625 64.015625 
L 48.09375 14.015625 
L 38.1875 14.015625 
L 19.390625 64.015625 
L 19.390625 0 
L 9.8125 0 
z
" id="DejaVuSans-77"/>
       <path d="M 34.1875 63.1875 
L 20.796875 26.90625 
L 47.609375 26.90625 
z
M 28.609375 72.90625 
L 39.796875 72.90625 
L 67.578125 0 
L 57.328125 0 
L 50.6875 18.703125 
L 17.828125 18.703125 
L 11.1875 0 
L 0.78125 0 
z
" id="DejaVuSans-65"/>
       <path d="M 48.6875 27.296875 
Q 48.6875 37.203125 44.609375 42.84375 
Q 40.53125 48.484375 33.40625 48.484375 
Q 26.265625 48.484375 22.1875 42.84375 
Q 18.109375 37.203125 18.109375 27.296875 
Q 18.109375 17.390625 22.1875 11.75 
Q 26.265625 6.109375 33.40625 6.109375 
Q 40.53125 6.109375 44.609375 11.75 
Q 48.6875 17.390625 48.6875 27.296875 
z
M 18.109375 46.390625 
Q 20.953125 51.265625 25.265625 53.625 
Q 29.59375 56 35.59375 56 
Q 45.5625 56 51.78125 48.09375 
Q 58.015625 40.1875 58.015625 27.296875 
Q 58.015625 14.40625 51.78125 6.484375 
Q 45.5625 -1.421875 35.59375 -1.421875 
Q 29.59375 -1.421875 25.265625 0.953125 
Q 20.953125 3.328125 18.109375 8.203125 
L 18.109375 0 
L 9.078125 0 
L 9.078125 75.984375 
L 18.109375 75.984375 
z
" id="DejaVuSans-98"/>
       <path d="M 9.421875 75.984375 
L 18.40625 75.984375 
L 18.40625 0 
L 9.421875 0 
z
" id="DejaVuSans-108"/>
       <path d="M 9.8125 72.90625 
L 55.90625 72.90625 
L 55.90625 64.59375 
L 19.671875 64.59375 
L 19.671875 43.015625 
L 54.390625 43.015625 
L 54.390625 34.71875 
L 19.671875 34.71875 
L 19.671875 8.296875 
L 56.78125 8.296875 
L 56.78125 0 
L 9.8125 0 
z
" id="DejaVuSans-69"/>
      </defs>
      <use xlink:href="#DejaVuSans-77"/>
      <use x="86.279297" xlink:href="#DejaVuSans-101"/>
      <use x="147.802734" xlink:href="#DejaVuSans-97"/>
      <use x="209.082031" xlink:href="#DejaVuSans-110"/>
      <use x="272.460938" xlink:href="#DejaVuSans-32"/>
      <use x="304.248047" xlink:href="#DejaVuSans-65"/>
      <use x="372.65625" xlink:href="#DejaVuSans-98"/>
      <use x="436.132812" xlink:href="#DejaVuSans-115"/>
      <use x="488.232422" xlink:href="#DejaVuSans-111"/>
      <use x="549.414062" xlink:href="#DejaVuSans-108"/>
      <use x="577.197266" xlink:href="#DejaVuSans-117"/>
      <use x="640.576172" xlink:href="#DejaVuSans-116"/>
      <use x="679.785156" xlink:href="#DejaVuSans-101"/>
      <use x="741.308594" xlink:href="#DejaVuSans-32"/>
      <use x="773.095703" xlink:href="#DejaVuSans-69"/>
      <use x="836.279297" xlink:href="#DejaVuSans-114"/>
      <use x="875.642578" xlink:href="#DejaVuSans-114"/>
      <use x="914.505859" xlink:href="#DejaVuSans-111"/>
      <use x="975.6875" xlink:href="#DejaVuSans-114"/>
     </g>
    </g>
   </g>
   <g id="line2d_33">
    <path clip-path="url(#pcee9af0e52)" d="M 80.754545 77.776364 
L 83.595273 78.89333 
L 86.436 121.539152 
L 89.276727 138.281459 
L 92.117455 151.950537 
L 94.958182 162.800085 
L 97.798909 165.698973 
L 100.639636 165.433897 
L 103.480364 172.917033 
L 106.321091 164.61027 
L 109.161818 187.299406 
L 112.002545 220.530086 
L 114.843273 220.589368 
L 117.684 242.012611 
L 120.524727 268.432875 
L 123.365455 287.70442 
L 126.206182 378.503241 
L 129.046909 379.438615 
L 131.887636 394.176957 
L 134.728364 395.109094 
L 137.569091 398.267454 
L 140.409818 394.777415 
L 143.250545 400.819456 
L 146.091273 402.390989 
L 148.932 401.509657 
L 151.772727 408.024858 
L 154.613455 411.127398 
L 157.454182 412.925252 
L 160.294909 413.043505 
L 163.135636 408.395942 
L 165.976364 410.496669 
L 168.817091 414.409619 
L 171.657818 418.656466 
L 174.498545 419.437866 
L 177.339273 416.52916 
L 180.18 414.69108 
L 183.020727 417.742002 
L 185.861455 418.376251 
L 188.702182 420.020645 
L 191.542909 421.215256 
L 194.383636 418.6342 
L 197.224364 422.967534 
L 200.065091 415.109955 
L 202.905818 413.857924 
L 205.746545 413.885709 
L 208.587273 417.249611 
L 211.428 415.401439 
L 214.268727 416.135773 
L 217.109455 418.451141 
L 219.950182 416.545847 
L 222.790909 418.439977 
L 225.631636 416.556022 
L 228.472364 418.278568 
L 231.313091 415.432232 
L 234.153818 414.390785 
L 236.994545 415.056633 
L 239.835273 414.670084 
L 242.676 405.431248 
L 245.516727 408.350386 
L 248.357455 407.602973 
L 251.198182 400.751574 
L 254.038909 404.475933 
L 256.879636 406.943745 
L 259.720364 399.314912 
L 262.561091 401.914026 
L 265.401818 406.971183 
L 268.242545 403.775693 
L 271.083273 407.63722 
L 273.924 404.563129 
L 276.764727 411.431871 
L 279.605455 404.371529 
L 282.446182 404.196055 
L 285.286909 407.174225 
L 288.127636 402.836829 
L 290.968364 406.322467 
L 293.809091 408.652797 
L 296.649818 404.396655 
L 299.490545 406.404751 
L 302.331273 407.309113 
L 305.172 402.461867 
L 308.012727 405.797762 
L 310.853455 399.9363 
L 313.694182 402.325949 
L 316.534909 402.37171 
L 319.375636 401.908452 
L 322.216364 400.6024 
L 325.057091 401.206468 
L 327.897818 399.129697 
L 330.738545 399.677997 
L 333.579273 400.509535 
L 336.42 401.265177 
L 339.260727 398.32255 
L 342.101455 396.410033 
L 344.942182 396.413246 
L 347.782909 397.192896 
L 350.623636 399.094017 
L 353.464364 408.535034 
L 356.305091 404.062579 
L 359.145818 406.804999 
L 361.986545 408.517835 
L 364.827273 414.991492 
L 367.668 411.288316 
L 370.508727 404.484973 
L 373.349455 406.121721 
L 376.190182 406.339064 
L 379.030909 405.183901 
L 381.871636 404.514718 
L 384.712364 409.022232 
L 387.553091 405.729717 
L 390.393818 408.578856 
L 393.234545 408.274232 
L 396.075273 410.980616 
L 398.916 410.534171 
L 401.756727 409.47535 
L 404.597455 407.958487 
L 407.438182 413.852221 
L 410.278909 413.173185 
L 413.119636 409.801944 
L 415.960364 409.582461 
L 418.801091 412.025686 
L 421.641818 408.976238 
L 424.482545 408.863799 
L 427.323273 407.509067 
L 430.164 412.022327 
L 433.004727 410.137267 
L 435.845455 412.289724 
" style="fill:none;stroke:#1f77b4;stroke-linecap:square;stroke-width:1.5;"/>
   </g>
   <g id="line2d_34">
    <path clip-path="url(#pcee9af0e52)" d="M 80.754545 77.776364 
L 83.595273 78.89333 
L 86.436 121.539152 
L 89.276727 138.281459 
L 92.117455 151.950537 
L 94.958182 162.800085 
L 97.798909 165.698973 
L 100.639636 165.433897 
L 103.480364 172.917033 
L 106.321091 164.61027 
L 109.161818 187.299406 
L 112.002545 220.530086 
L 114.843273 220.589368 
L 117.684 242.012611 
L 120.524727 268.432875 
L 123.365455 287.70442 
L 126.206182 378.503241 
L 129.046909 379.438615 
L 131.887636 394.176957 
L 134.728364 395.109094 
L 137.569091 398.267454 
L 140.409818 394.777415 
L 143.250545 400.819456 
L 146.091273 402.390989 
L 148.932 401.509657 
L 151.772727 408.024858 
L 154.613455 411.127398 
L 157.454182 412.925252 
L 160.294909 413.043505 
L 163.135636 408.395942 
L 165.976364 410.496669 
L 168.817091 414.409619 
L 171.657818 418.656466 
L 174.498545 419.437866 
L 177.339273 416.52916 
L 180.18 414.69108 
L 183.020727 417.742002 
L 185.861455 418.376251 
L 188.702182 420.020645 
L 191.542909 421.215256 
L 194.383636 418.6342 
L 197.224364 422.967534 
L 200.065091 415.109955 
L 202.905818 413.857924 
L 205.746545 413.885709 
L 208.587273 417.249611 
L 211.428 415.401439 
L 214.268727 416.135773 
L 217.109455 418.451141 
L 219.950182 416.545847 
L 222.790909 418.439977 
L 225.631636 416.556022 
L 228.472364 418.278568 
L 231.313091 415.432232 
L 234.153818 414.390785 
L 236.994545 415.056633 
L 239.835273 414.670084 
L 242.676 405.431248 
L 245.516727 408.350386 
L 248.357455 407.602973 
L 251.198182 400.751574 
L 254.038909 404.475933 
L 256.879636 406.943745 
L 259.720364 399.314912 
L 262.561091 401.914026 
L 265.401818 406.971183 
L 268.242545 403.775693 
L 271.083273 407.63722 
L 273.924 404.563129 
L 276.764727 411.431871 
L 279.605455 404.371529 
L 282.446182 404.196055 
L 285.286909 407.174225 
L 288.127636 402.836829 
L 290.968364 406.322467 
L 293.809091 408.652797 
L 296.649818 404.396655 
L 299.490545 406.404751 
L 302.331273 407.309113 
L 305.172 402.461867 
L 308.012727 405.797762 
L 310.853455 399.9363 
L 313.694182 402.325949 
L 316.534909 402.37171 
L 319.375636 401.908452 
L 322.216364 400.6024 
L 325.057091 401.206468 
L 327.897818 399.129697 
L 330.738545 399.677997 
L 333.579273 400.509535 
L 336.42 401.265177 
L 339.260727 398.32255 
L 342.101455 396.410033 
L 344.942182 396.413246 
L 347.782909 397.192896 
L 350.623636 399.094017 
L 353.464364 408.535034 
L 356.305091 404.062579 
L 359.145818 406.804999 
L 361.986545 408.517835 
L 364.827273 414.991492 
L 367.668 411.288316 
L 370.508727 404.484973 
L 373.349455 406.121721 
L 376.190182 406.339064 
L 379.030909 405.183901 
L 381.871636 404.514718 
L 384.712364 409.022232 
L 387.553091 405.729717 
L 390.393818 408.578856 
L 393.234545 408.274232 
L 396.075273 410.980616 
L 398.916 410.534171 
L 401.756727 409.47535 
L 404.597455 407.958487 
L 407.438182 413.852221 
L 410.278909 413.173185 
L 413.119636 409.801944 
L 415.960364 409.582461 
L 418.801091 412.025686 
L 421.641818 408.976238 
L 424.482545 408.863799 
L 427.323273 407.509067 
L 430.164 412.022327 
L 433.004727 410.137267 
L 435.845455 412.289724 
" style="fill:none;stroke:#3288bd;stroke-linecap:square;stroke-width:1.5;"/>
   </g>
   <g id="patch_4">
    <path d="M 63 441 
L 63 60.48 
" style="fill:none;stroke:#000000;stroke-linecap:square;stroke-linejoin:miter;stroke-width:0.8;"/>
   </g>
   <g id="patch_5">
    <path d="M 63 441 
L 453.6 441 
" style="fill:none;stroke:#000000;stroke-linecap:square;stroke-linejoin:miter;stroke-width:0.8;"/>
   </g>
   <g id="text_19">
    <g id="patch_6">
     <path d="M 79.250318 378.197693 
L 264.065318 378.197693 
L 264.065318 343.066568 
L 79.250318 343.066568 
z
" style="fill:#ff0000;opacity:0.1;stroke:#000000;stroke-linejoin:miter;"/>
    </g>
    <!-- MAE = 0.26  -->
    <g transform="translate(134.477506 357.224693)scale(0.12 -0.12)">
     <defs>
      <path d="M 10.59375 45.40625 
L 73.1875 45.40625 
L 73.1875 37.203125 
L 10.59375 37.203125 
z
M 10.59375 25.484375 
L 73.1875 25.484375 
L 73.1875 17.1875 
L 10.59375 17.1875 
z
" id="DejaVuSans-61"/>
     </defs>
     <use xlink:href="#DejaVuSans-77"/>
     <use x="86.279297" xlink:href="#DejaVuSans-65"/>
     <use x="154.6875" xlink:href="#DejaVuSans-69"/>
     <use x="217.871094" xlink:href="#DejaVuSans-32"/>
     <use x="249.658203" xlink:href="#DejaVuSans-61"/>
     <use x="333.447266" xlink:href="#DejaVuSans-32"/>
     <use x="365.234375" xlink:href="#DejaVuSans-48"/>
     <use x="428.857422" xlink:href="#DejaVuSans-46"/>
     <use x="460.644531" xlink:href="#DejaVuSans-50"/>
     <use x="524.267578" xlink:href="#DejaVuSans-54"/>
     <use x="587.890625" xlink:href="#DejaVuSans-32"/>
    </g>
    <!--  Heuristic feature count = 33 -->
    <g transform="translate(84.290318 370.662068)scale(0.12 -0.12)">
     <defs>
      <path d="M 9.8125 72.90625 
L 19.671875 72.90625 
L 19.671875 43.015625 
L 55.515625 43.015625 
L 55.515625 72.90625 
L 65.375 72.90625 
L 65.375 0 
L 55.515625 0 
L 55.515625 34.71875 
L 19.671875 34.71875 
L 19.671875 0 
L 9.8125 0 
z
" id="DejaVuSans-72"/>
     </defs>
     <use xlink:href="#DejaVuSans-32"/>
     <use x="31.787109" xlink:href="#DejaVuSans-72"/>
     <use x="106.982422" xlink:href="#DejaVuSans-101"/>
     <use x="168.505859" xlink:href="#DejaVuSans-117"/>
     <use x="231.884766" xlink:href="#DejaVuSans-114"/>
     <use x="272.998047" xlink:href="#DejaVuSans-105"/>
     <use x="300.78125" xlink:href="#DejaVuSans-115"/>
     <use x="352.880859" xlink:href="#DejaVuSans-116"/>
     <use x="392.089844" xlink:href="#DejaVuSans-105"/>
     <use x="419.873047" xlink:href="#DejaVuSans-99"/>
     <use x="474.853516" xlink:href="#DejaVuSans-32"/>
     <use x="506.640625" xlink:href="#DejaVuSans-102"/>
     <use x="541.845703" xlink:href="#DejaVuSans-101"/>
     <use x="603.369141" xlink:href="#DejaVuSans-97"/>
     <use x="664.648438" xlink:href="#DejaVuSans-116"/>
     <use x="703.857422" xlink:href="#DejaVuSans-117"/>
     <use x="767.236328" xlink:href="#DejaVuSans-114"/>
     <use x="806.099609" xlink:href="#DejaVuSans-101"/>
     <use x="867.623047" xlink:href="#DejaVuSans-32"/>
     <use x="899.410156" xlink:href="#DejaVuSans-99"/>
     <use x="954.390625" xlink:href="#DejaVuSans-111"/>
     <use x="1015.572266" xlink:href="#DejaVuSans-117"/>
     <use x="1078.951172" xlink:href="#DejaVuSans-110"/>
     <use x="1142.330078" xlink:href="#DejaVuSans-116"/>
     <use x="1181.539062" xlink:href="#DejaVuSans-32"/>
     <use x="1213.326172" xlink:href="#DejaVuSans-61"/>
     <use x="1297.115234" xlink:href="#DejaVuSans-32"/>
     <use x="1328.902344" xlink:href="#DejaVuSans-51"/>
     <use x="1392.525391" xlink:href="#DejaVuSans-51"/>
    </g>
   </g>
  </g>
 </g>
 <defs>
  <clipPath id="pcee9af0e52">
   <rect height="380.52" width="390.6" x="63" y="60.48"/>
  </clipPath>
 </defs>
</svg>
